<?xml version="1.0" encoding="utf-8"?>
<!DOCTYPE svg PUBLIC "-//W3C//DTD SVG 1.1//EN" "http://www.w3.org/Graphics/SVG/1.1/DTD/svg11.dtd">
<svg version="1.1" xmlns="http://www.w3.org/2000/svg" xmlns:xlink="http://www.w3.org/1999/xlink" x="0px" y="0px" width="1000px"
	 height="1500px" viewBox="0 0 1000 1500" enable-background="new 0 0 1000 1500" xml:space="preserve">
<g id="background">
	<rect id="background_square" fill="#61995E" width="1000" height="1500"/>
</g>
<g id="ground">
	<g id="baseline">
		<rect x="198" y="83" fill="#3266D8" width="604" height="1334"/>
		<path fill="#FFFFFF" d="M799,86v1328H201V86H799 M805,80H195v1340h610V80L805,80z"/>
	</g>
	<line id="net_line" fill="none" stroke="#FFFFFF" stroke-width="6" stroke-dasharray="12" x1="195" y1="750" x2="805" y2="750"/>
	<g id="service_line">
		<path fill="#FFFFFF" d="M799,556v388H201V556H799 M805,550H195v400h610V550L805,550z"/>
	</g>
	<g id="bottom_baseline">
		<path fill="#FFFFFF" d="M799,1348v66H201v-66H799 M805,1342H195v78h610V1342L805,1342z"/>
	</g>
	<g id="top_baseline">
		<path fill="#FFFFFF" d="M799,86v66H201V86H799 M805,80H195v78h610V80L805,80z"/>
	</g>
	<line id="bottom_center_line" fill="none" stroke="#FFFFFF" stroke-width="6" x1="500" y1="1417" x2="500" y2="947"/>
	<line id="top_center_line" fill="none" stroke="#FFFFFF" stroke-width="6" x1="500" y1="553" x2="500" y2="83"/>
	<g id="left_double_line">
		<path fill="#FFFFFF" d="M237,86v1328h-36V86H237 M243,80h-48v1340h48V80L243,80z"/>
	</g>
	<g id="right_double_line">
		<path fill="#FFFFFF" d="M799,86v1328h-36V86H799 M805,80h-48v1340h48V80L805,80z"/>
	</g>
</g>
</svg>
